<svg xmlns="http://www.w3.org/2000/svg" viewBox="0 0 32 32">
  <rect width="32" height="32" rx="6" fill="#F3BA2F"/>
  <g fill="#1E2026">
    <polygon points="16,5 18.5,7.5 13,13 10.5,10.5"/>
    <polygon points="16,5 18.5,7.5 21,10 18.5,12.5 16,10 13.5,12.5 11,10"/>
    <polygon points="7,14 9.5,11.5 12,14 9.5,16.5"/>
    <polygon points="25,14 22.5,11.5 20,14 22.5,16.5"/>
    <polygon points="16,13 18.5,15.5 16,18 13.5,15.5"/>
    <polygon points="11,18 13.5,15.5 16,18 13.5,20.5"/>
    <polygon points="21,18 18.5,15.5 16,18 18.5,20.5"/>
    <polygon points="16,27 13.5,24.5 16,22 18.5,24.5"/>
    <polygon points="7,18 9.5,20.5 12,18 9.5,15.5"/>
    <polygon points="25,18 22.5,20.5 20,18 22.5,15.5"/>
  </g>
</svg>